HIERARCHY
ROOT Hips
{
	OFFSET 0.000000 71.427986 0.000000
	CHANNELS 6 Xposition Yposition Zposition Xrotation Yrotation Zrotation
	JOINT Pelvis
	{
		OFFSET 0.000000 0.000000 0.000000
		CHANNELS 3 Xrotation Yrotation Zrotation
		JOINT LeftUpLeg
		{
			OFFSET 6.797100 -2.508499 -1.318700
			CHANNELS 3 Xrotation Yrotation Zrotation
			JOINT LeftLeg
			{
				OFFSET 0.069008 -29.241863 0.690200
				CHANNELS 3 Xrotation Yrotation Zrotation
				JOINT LeftFoot
				{
					OFFSET -0.069008 -29.568123 -0.266800
					CHANNELS 3 Xrotation Yrotation Zrotation
					JOINT LeftToeBase
					{
						OFFSET 3.145500 -8.631000 16.059900
						CHANNELS 3 Xrotation Yrotation Zrotation
						End Site
						{
							OFFSET 0.000000 18.501587 0.000000
						}
					}
				}
			}
			JOINT Left_ShortSleeve
			{
				OFFSET 0.265923 -10.480953 1.153800
				CHANNELS 3 Xrotation Yrotation Zrotation
				End Site
				{
					OFFSET 1.725763 19.823879 0.000000
				}
			}
		}
		JOINT RightUpLeg
		{
			OFFSET -6.797100 -2.508499 -1.318700
			CHANNELS 3 Xrotation Yrotation Zrotation
			JOINT RightLeg
			{
				OFFSET -0.082453 -29.241932 0.688000
				CHANNELS 3 Xrotation Yrotation Zrotation
				JOINT RightFoot
				{
					OFFSET 0.082453 -29.568058 -0.264600
					CHANNELS 3 Xrotation Yrotation Zrotation
					JOINT RightToeBase
					{
						OFFSET -3.115300 -8.682800 16.113400
						CHANNELS 3 Xrotation Yrotation Zrotation
						End Site
						{
							OFFSET 0.000000 18.567114 0.000000
						}
					}
				}
			}
			JOINT Right_ShortSleeve
			{
				OFFSET -0.265923 -10.480953 1.153800
				CHANNELS 3 Xrotation Yrotation Zrotation
				End Site
				{
					OFFSET -1.725766 19.823910 0.000000
				}
			}
		}
	}
	JOINT Spine
	{
		OFFSET 0.000000 13.368103 0.470500
		CHANNELS 3 Xrotation Yrotation Zrotation
		JOINT Spine1
		{
			OFFSET 0.147000 13.837402 0.538800
			CHANNELS 3 Xrotation Yrotation Zrotation
			JOINT Spine2
			{
				OFFSET 0.168000 16.242897 -1.435500
				CHANNELS 3 Xrotation Yrotation Zrotation
				JOINT Neck
				{
					OFFSET 0.217200 18.631500 -1.679100
					CHANNELS 3 Xrotation Yrotation Zrotation
					JOINT Head
					{
						OFFSET 0.000000 6.599396 1.385900
						CHANNELS 3 Xrotation Yrotation Zrotation
						JOINT Hat
						{
							OFFSET -0.532200 27.220596 -10.096100
							CHANNELS 3 Xrotation Yrotation Zrotation
							End Site
							{
								OFFSET 0.000000 22.029861 0.000000
							}
						}
						JOINT HairD
						{
							OFFSET -10.777400 17.437393 -1.325900
							CHANNELS 3 Xrotation Yrotation Zrotation
							JOINT HairD1
							{
								OFFSET -3.290299 -11.051193 1.062200
								CHANNELS 3 Xrotation Yrotation Zrotation
								End Site
								{
									OFFSET 0.000000 11.579437 0.000000
								}
							}
						}
						JOINT HairB
						{
							OFFSET -10.777400 17.437393 1.467900
							CHANNELS 3 Xrotation Yrotation Zrotation
							JOINT HairB1
							{
								OFFSET -1.561200 -12.956299 3.590200
								CHANNELS 3 Xrotation Yrotation Zrotation
								End Site
								{
									OFFSET 0.000000 13.534866 0.000000
								}
							}
						}
						JOINT HairA
						{
							OFFSET 9.713100 17.437393 1.467900
							CHANNELS 3 Xrotation Yrotation Zrotation
							JOINT HairA1
							{
								OFFSET 1.561200 -12.956299 3.590200
								CHANNELS 3 Xrotation Yrotation Zrotation
								End Site
								{
									OFFSET 0.000000 13.534866 0.000000
								}
							}
						}
						JOINT HairC
						{
							OFFSET 9.713100 17.437393 -1.325900
							CHANNELS 3 Xrotation Yrotation Zrotation
							JOINT HairC1
							{
								OFFSET 3.290300 -11.051193 1.062200
								CHANNELS 3 Xrotation Yrotation Zrotation
								End Site
								{
									OFFSET 0.000000 11.579437 0.000000
								}
							}
						}
					}
				}
				JOINT LeftShoulder
				{
					OFFSET 5.101800 15.108002 -2.763700
					CHANNELS 3 Xrotation Yrotation Zrotation
					JOINT LeftArm
					{
						OFFSET 9.825497 2.506317 -1.597400
						CHANNELS 3 Xrotation Yrotation Zrotation
						JOINT LeftForeArm
						{
							OFFSET 21.966244 0.000000 0.000000
							CHANNELS 3 Xrotation Yrotation Zrotation
							JOINT LeftHand
							{
								OFFSET 33.879036 0.000000 0.000000
								CHANNELS 3 Xrotation Yrotation Zrotation
								JOINT LeftHandThumb1
								{
									OFFSET 6.715286 -2.359680 3.363841
									CHANNELS 3 Xrotation Yrotation Zrotation
									JOINT LeftHandThumb2
									{
										OFFSET 2.507072 -1.447464 1.447461
										CHANNELS 3 Xrotation Yrotation Zrotation
										JOINT LeftHandThumb3
										{
											OFFSET 2.898338 -1.673355 1.673357
											CHANNELS 3 Xrotation Yrotation Zrotation
											End Site
											{
												OFFSET -0.295959 3.727692 -0.131651
											}
										}
									}
								}
								JOINT LeftHandIndex1
								{
									OFFSET 14.190811 -0.254547 3.840278
									CHANNELS 3 Xrotation Yrotation Zrotation
									JOINT LeftHandIndex2
									{
										OFFSET 3.551727 0.000000 -0.000000
										CHANNELS 3 Xrotation Yrotation Zrotation
										JOINT LeftHandIndex3
										{
											OFFSET 2.894196 0.000000 0.000000
											CHANNELS 3 Xrotation Yrotation Zrotation
											End Site
											{
												OFFSET -1.000603 2.690872 0.366626
											}
										}
									}
								}
								JOINT LeftHandMiddle1
								{
									OFFSET 13.776489 0.000000 0.000000
									CHANNELS 3 Xrotation Yrotation Zrotation
									JOINT LeftHandMiddle2
									{
										OFFSET 3.438232 0.000000 0.000000
										CHANNELS 3 Xrotation Yrotation Zrotation
										JOINT LeftHandMiddle3
										{
											OFFSET 3.691551 0.000000 0.000000
											CHANNELS 3 Xrotation Yrotation Zrotation
											End Site
											{
												OFFSET -1.082298 3.499527 0.457670
											}
										}
									}
								}
								JOINT LeftHandRing1
								{
									OFFSET 13.966164 -0.268127 -3.067488
									CHANNELS 3 Xrotation Yrotation Zrotation
									JOINT LeftHandRing2
									{
										OFFSET 3.162567 0.000000 0.000000
										CHANNELS 3 Xrotation Yrotation Zrotation
										JOINT LeftHandRing3
										{
											OFFSET 3.324348 0.000000 0.000000
											CHANNELS 3 Xrotation Yrotation Zrotation
											End Site
											{
												OFFSET -0.861900 3.184998 0.405154
											}
										}
									}
								}
								JOINT LeftHandPinky1
								{
									OFFSET 13.131393 -0.168503 -5.746925
									CHANNELS 3 Xrotation Yrotation Zrotation
									JOINT LeftHandPinky2
									{
										OFFSET 2.849182 0.000000 0.000000
										CHANNELS 3 Xrotation Yrotation Zrotation
										JOINT LeftHandPinky3
										{
											OFFSET 2.805038 0.000000 0.000000
											CHANNELS 3 Xrotation Yrotation Zrotation
											End Site
											{
												OFFSET -0.882500 2.642609 0.325652
											}
										}
									}
								}
							}
							JOINT Left_Sleeve
							{
								OFFSET 6.592125 -0.646545 0.805568
								CHANNELS 3 Xrotation Yrotation Zrotation
								End Site
								{
									OFFSET -0.000179 20.275787 -0.000000
								}
							}
						}
					}
				}
				JOINT RightShoulder
				{
					OFFSET -5.731700 15.108002 -2.763700
					CHANNELS 3 Xrotation Yrotation Zrotation
					JOINT RightArm
					{
						OFFSET -9.825497 2.506317 -1.597400
						CHANNELS 3 Xrotation Yrotation Zrotation
						JOINT RightForeArm
						{
							OFFSET -21.966242 0.000000 0.000000
							CHANNELS 3 Xrotation Yrotation Zrotation
							JOINT RightHand
							{
								OFFSET -33.879032 0.000000 0.000000
								CHANNELS 3 Xrotation Yrotation Zrotation
								JOINT RightHandThumb1
								{
									OFFSET -6.715286 -2.359680 3.363841
									CHANNELS 3 Xrotation Yrotation Zrotation
									JOINT RightHandThumb2
									{
										OFFSET -2.507072 -1.447464 1.447461
										CHANNELS 3 Xrotation Yrotation Zrotation
										JOINT RightHandThumb3
										{
											OFFSET -2.898338 -1.673355 1.673357
											CHANNELS 3 Xrotation Yrotation Zrotation
											End Site
											{
												OFFSET 0.295959 3.727692 -0.131651
											}
										}
									}
								}
								JOINT RightHandIndex1
								{
									OFFSET -14.190811 -0.254547 3.840278
									CHANNELS 3 Xrotation Yrotation Zrotation
									JOINT RightHandIndex2
									{
										OFFSET -3.551727 0.000000 -0.000000
										CHANNELS 3 Xrotation Yrotation Zrotation
										JOINT RightHandIndex3
										{
											OFFSET -2.894196 0.000000 0.000000
											CHANNELS 3 Xrotation Yrotation Zrotation
											End Site
											{
												OFFSET 1.000603 2.690872 0.366626
											}
										}
									}
								}
								JOINT RightHandMiddle1
								{
									OFFSET -13.776489 0.000000 0.000000
									CHANNELS 3 Xrotation Yrotation Zrotation
									JOINT RightHandMiddle2
									{
										OFFSET -3.438232 0.000000 0.000000
										CHANNELS 3 Xrotation Yrotation Zrotation
										JOINT RightHandMiddle3
										{
											OFFSET -3.691551 0.000000 0.000000
											CHANNELS 3 Xrotation Yrotation Zrotation
											End Site
											{
												OFFSET 1.082298 3.499527 0.457670
											}
										}
									}
								}
								JOINT RightHandRing1
								{
									OFFSET -13.966164 -0.268127 -3.067488
									CHANNELS 3 Xrotation Yrotation Zrotation
									JOINT RightHandRing2
									{
										OFFSET -3.162567 0.000000 0.000000
										CHANNELS 3 Xrotation Yrotation Zrotation
										JOINT RightHandRing3
										{
											OFFSET -3.324348 0.000000 0.000000
											CHANNELS 3 Xrotation Yrotation Zrotation
											End Site
											{
												OFFSET 0.861900 3.184998 0.405154
											}
										}
									}
								}
								JOINT RightHandPinky1
								{
									OFFSET -13.131393 -0.168503 -5.746925
									CHANNELS 3 Xrotation Yrotation Zrotation
									JOINT RightHandPinky2
									{
										OFFSET -2.849182 0.000000 0.000000
										CHANNELS 3 Xrotation Yrotation Zrotation
										JOINT RightHandPinky3
										{
											OFFSET -2.805038 0.000000 0.000000
											CHANNELS 3 Xrotation Yrotation Zrotation
											End Site
											{
												OFFSET 0.882500 2.642609 0.325652
											}
										}
									}
								}
							}
							JOINT Right_Sleeve
							{
								OFFSET -6.592125 -0.646545 0.805568
								CHANNELS 3 Xrotation Yrotation Zrotation
								End Site
								{
									OFFSET 0.000179 20.275787 -0.000000
								}
							}
						}
					}
				}
				JOINT Bind_Right_JacketString
				{
					OFFSET -3.534800 11.969597 7.200700
					CHANNELS 3 Xrotation Yrotation Zrotation
					JOINT Bind_Right_JacketString1
					{
						OFFSET -0.319900 -6.102600 2.794100
						CHANNELS 3 Xrotation Yrotation Zrotation
						End Site
						{
							OFFSET 0.000000 6.719452 0.000000
						}
					}
				}
				JOINT Bind_Left_JacketString
				{
					OFFSET 2.904800 11.969597 7.200700
					CHANNELS 3 Xrotation Yrotation Zrotation
					JOINT Bind_Left_JacketString1
					{
						OFFSET 0.364800 -5.904503 3.186800
						CHANNELS 3 Xrotation Yrotation Zrotation
						End Site
						{
							OFFSET 0.000000 6.719513 0.000000
						}
					}
				}
				JOINT HairE
				{
					OFFSET 5.915200 17.612701 -11.592200
					CHANNELS 3 Xrotation Yrotation Zrotation
					JOINT HairE1
					{
						OFFSET 0.289200 -7.171898 -1.284500
						CHANNELS 3 Xrotation Yrotation Zrotation
						End Site
						{
							OFFSET 0.000000 7.291756 0.000000
						}
					}
				}
				JOINT HairF
				{
					OFFSET -0.864800 17.612701 -11.592200
					CHANNELS 3 Xrotation Yrotation Zrotation
					JOINT HairF1
					{
						OFFSET 0.000000 -14.087097 -2.127501
						CHANNELS 3 Xrotation Yrotation Zrotation
						End Site
						{
							OFFSET 0.000000 14.246841 0.000000
						}
					}
				}
				JOINT HairG
				{
					OFFSET -8.087700 17.612701 -11.592200
					CHANNELS 3 Xrotation Yrotation Zrotation
					JOINT HairG1
					{
						OFFSET -0.293600 -6.081398 -0.910100
						CHANNELS 3 Xrotation Yrotation Zrotation
						End Site
						{
							OFFSET 0.000000 6.156120 0.000000
						}
					}
				}
			}
		}
	}
	JOINT Pouch
	{
		OFFSET 0.000000 4.394501 10.847300
		CHANNELS 3 Xrotation Yrotation Zrotation
		End Site
		{
			OFFSET 0.000000 21.880577 0.000000
		}
	}
	JOINT Bag
	{
		OFFSET -13.229000 4.813004 -0.593300
		CHANNELS 3 Xrotation Yrotation Zrotation
		End Site
		{
			OFFSET 0.000000 21.880577 0.000000
		}
	}
	JOINT OccupyGuyFacialAnim_Joint
	{
		OFFSET 1.000000 -70.206398 -1.655000
		CHANNELS 3 Xrotation Yrotation Zrotation
		End Site
		{
			OFFSET 0.000000 21.880577 0.000000
		}
	}
}
MOTION
Frames: 4
Frame Time: 0.016667
-0.863819 63.625694 0.767575 3.013712 -58.244582 6.565689 -0.000000 -0.000001 -0.000000 -32.626912 11.150704 23.548039 43.777329 -8.035648 -9.926178 -13.047505 -2.694322 -7.240397 0.000000 0.000002 -0.000000 -0.000002 -0.000002 -0.000002 -30.695584 -9.745036 -24.744609 48.825129 2.523547 -7.653247 -22.400866 2.490524 19.772853 0.000000 0.000002 0.000000 -0.000001 0.000001 -0.000001 11.191575 0.099398 -2.783169 8.434600 0.027702 -5.592319 8.457040 0.027830 -5.591844 -21.556854 25.063186 12.062630 -0.293121 25.465699 -3.208475 0.000000 0.000000 0.000000 0.000000 0.000000 0.000000 0.000000 0.000000 0.000000 0.000000 0.000000 -0.000001 0.000001 -0.000000 -0.000001 0.000000 0.000000 -0.000001 0.000001 -0.000000 -0.000001 0.000000 0.000000 0.000000 0.000000 0.000000 0.000000 -6.221674 -11.503858 -4.023826 -23.062135 9.568627 -36.639614 0.046127 -43.169285 -0.011193 22.743719 -5.685829 15.979248 -1.064226 -7.954935 8.490111 2.373425 19.986085 -2.038326 -0.000001 -0.000000 0.000000 13.340899 -1.006668 10.682313 -0.167595 0.303377 -31.105668 -0.000001 -0.000000 -0.000000 8.495447 -0.329540 -0.915268 0.231492 0.661247 -29.901875 0.000001 -0.000000 0.000001 6.111756 3.150902 -16.210926 0.047082 0.322433 -30.125454 -0.000001 0.000001 -0.000002 -5.636033 7.709875 -13.878572 0.224376 0.276603 -46.588338 -0.000000 0.000000 0.000001 0.000000 0.000001 -0.000002 -5.488250 10.658292 2.466536 -41.473810 -26.755541 30.078965 24.955438 111.863151 -23.308429 -8.702470 12.422913 -9.802069 0.265003 10.061062 -10.888472 1.383798 -17.412855 3.016294 -0.000001 -0.000004 0.000003 19.443581 11.174428 -13.340168 -0.118653 -0.322720 18.035591 -0.000001 0.000001 -0.000001 4.320431 2.436987 -4.811722 0.349117 -0.461251 26.890334 -0.000002 0.000001 0.000001 -7.005639 -10.695123 5.719874 0.111865 -0.089219 26.155882 0.000001 -0.000000 -0.000001 -19.433560 -20.238202 5.987864 0.223795 -0.085775 36.844585 -0.000000 0.000000 0.000001 -0.000001 0.000003 0.000003 -0.000002 0.000000 -0.000000 -0.000001 0.000000 -0.000000 -0.000002 0.000000 -0.000001 -0.000002 0.000000 -0.000001 -0.000002 0.000000 -0.000000 -0.000001 0.000000 -0.000000 -0.000002 0.000000 -0.000001 -0.000002 0.000000 -0.000001 -0.000002 0.000000 -0.000000 -0.000001 0.000000 -0.000000 -0.000000 -0.000001 -0.000000 -0.000000 -0.000001 -0.000000 -0.000000 -0.000001 -0.000000 
-1.003209 63.594978 0.826244 1.349142 -58.520391 4.910364 0.000000 0.000000 -0.000000 -31.808529 11.166289 24.043372 44.161322 -8.252163 -10.011509 -13.434413 -2.663471 -7.243269 0.000000 -0.000000 0.000000 -0.000003 -0.000001 -0.000002 -29.854166 -10.115098 -24.694909 49.021501 3.017666 -7.638545 -22.649146 2.492109 19.578845 -0.000000 -0.000002 0.000000 0.000001 0.000001 -0.000000 10.938268 -0.082754 -2.550529 7.815278 -0.326030 -5.179800 7.841705 -0.289952 -5.218252 -16.952220 25.003603 11.382621 1.554971 25.240421 -5.687663 0.000000 0.000000 0.000001 0.000000 0.000000 0.000001 0.000000 0.000000 0.000001 0.000000 0.000000 0.000000 -0.000001 0.000000 0.000000 0.000000 0.000000 0.000000 -0.000001 0.000000 0.000000 0.000000 0.000000 0.000001 0.000000 0.000000 0.000001 -6.685504 -11.300281 -5.194097 -20.846110 10.084658 -34.890877 4.501451 -44.384543 0.854188 12.301418 -3.504534 18.746820 -0.817777 -7.008214 8.688585 2.795504 20.865758 -1.954401 -0.000001 0.000001 0.000001 13.346471 -1.013374 8.858990 -0.165553 0.304566 -32.928987 0.000003 0.000000 0.000002 8.466204 -0.311471 -2.738558 0.241808 0.667294 -31.725276 0.000001 -0.000002 0.000000 6.092972 3.171974 -18.033071 0.048039 0.334592 -31.948838 -0.000001 0.000001 -0.000004 -5.643676 7.720622 -15.700937 0.231603 0.282305 -48.411749 0.000001 0.000000 0.000001 0.000001 0.000001 -0.000003 -5.634363 10.125341 2.634042 -41.005608 -24.756267 29.332183 24.443714 110.510316 -22.235787 -0.953746 8.719444 -11.067481 0.356417 9.641540 -10.977428 1.570917 -17.798312 2.977747 0.000003 0.000001 0.000002 19.447937 11.177508 -10.409353 -0.115826 -0.325262 20.967274 -0.000001 0.000004 -0.000001 4.273846 2.408368 -1.878586 0.365311 -0.471724 29.822102 -0.000003 -0.000000 -0.000003 -7.029079 -10.720208 8.646962 0.112306 -0.108830 29.087494 0.000002 0.000000 0.000002 -19.442330 -20.249281 8.916429 0.233714 -0.096697 39.776273 0.000002 0.000000 0.000004 -0.000001 0.000000 0.000001 0.000001 0.000000 -0.000001 0.000001 0.000000 -0.000000 0.000001 0.000000 -0.000000 0.000001 0.000000 -0.000000 0.000001 0.000000 -0.000001 0.000001 0.000000 -0.000000 0.000001 0.000000 -0.000000 0.000001 0.000000 -0.000000 0.000001 0.000000 -0.000001 0.000001 0.000000 -0.000000 0.000000 0.000000 -0.000000 0.000000 0.000000 -0.000000 0.000000 0.000000 -0.000000 
-1.208967 63.543663 1.026864 -0.230888 -58.898914 3.315930 0.000000 0.000001 -0.000000 -30.965619 11.181374 24.536690 44.805874 -8.398450 -10.128030 -14.126805 -2.625621 -7.223939 -0.000000 -0.000002 0.000000 -0.000001 0.000000 -0.000000 -28.974386 -10.461489 -24.745045 49.173312 3.675678 -7.606028 -22.962287 2.471533 19.433034 0.000000 0.000000 -0.000000 -0.000002 0.000000 -0.000000 10.330245 -0.487914 -1.979214 6.356267 -1.115945 -4.166068 6.388318 -1.004146 -4.289065 -6.596744 24.682755 10.020966 5.771840 24.455036 -11.198034 0.000001 -0.000001 -0.000000 0.000001 -0.000001 -0.000000 0.000001 -0.000001 -0.000000 0.000001 -0.000001 -0.000000 0.000000 0.000000 -0.000001 0.000001 -0.000001 -0.000000 0.000000 0.000000 -0.000001 0.000001 -0.000001 -0.000000 0.000001 -0.000001 -0.000000 -7.444599 -11.224863 -7.938096 -17.825469 12.833934 -32.921198 9.087181 -48.058314 1.764698 2.793995 0.641289 21.567465 -0.555595 -5.986845 8.898265 3.257399 21.811564 -1.869785 -0.000001 -0.000000 0.000002 13.352262 -1.020800 6.893201 -0.163305 0.305682 -34.894969 0.000001 0.000002 -0.000003 8.435345 -0.291022 -4.704286 0.253173 0.673440 -33.691332 -0.000001 0.000001 -0.000003 6.073470 3.195268 -19.997742 0.049529 0.347701 -33.914710 -0.000001 0.000001 -0.000001 -5.651523 7.732450 -17.665765 0.239510 0.288164 -50.377730 -0.000002 0.000004 -0.000002 0.000001 0.000001 -0.000000 -5.983470 8.827075 3.075376 -38.745870 -19.254845 28.392004 20.208740 109.867506 -16.299973 7.140795 4.709845 -11.433889 0.455354 9.184270 -11.073779 1.772498 -18.218563 2.932635 -0.000002 -0.000001 0.000002 19.452497 11.181110 -7.215357 -0.112653 -0.327762 24.162122 0.000000 -0.000001 -0.000003 4.224818 2.374550 1.317748 0.383445 -0.482154 33.017049 -0.000002 -0.000003 -0.000001 -7.053128 -10.748752 11.837139 0.113816 -0.130196 32.282250 -0.000004 -0.000001 -0.000000 -19.451204 -20.261814 12.108213 0.245148 -0.108083 42.971059 -0.000001 -0.000001 -0.000001 0.000002 -0.000001 -0.000003 -0.000000 0.000000 -0.000000 0.000002 0.000001 -0.000001 -0.000000 0.000000 -0.000001 -0.000000 0.000000 -0.000001 -0.000000 0.000000 -0.000000 0.000002 0.000001 -0.000001 -0.000000 0.000000 -0.000001 -0.000000 0.000000 -0.000001 -0.000000 0.000000 -0.000000 0.000002 0.000001 -0.000001 0.000000 0.000001 -0.000000 0.000000 0.000001 -0.000000 0.000000 0.000001 -0.000000 
-1.636263 63.508812 1.428888 -1.828740 -58.844170 1.780851 0.000000 -0.000001 0.000000 -29.937269 11.273988 24.897448 45.382171 -8.945935 -10.282151 -15.036474 -2.598849 -7.057148 -0.000000 0.000000 0.000000 -0.000000 -0.000002 0.000000 -27.591936 -10.960739 -24.981603 49.108193 4.060501 -7.576567 -23.534183 2.339901 19.554266 0.000000 -0.000002 -0.000000 -0.000001 0.000000 -0.000000 9.557052 -0.944346 -1.227200 4.553884 -2.005598 -2.831327 4.585547 -1.818078 -3.044919 5.236366 23.944289 8.810543 10.649090 23.072826 -17.338748 -0.000000 -0.000000 0.000000 -0.000000 -0.000000 0.000000 -0.000000 -0.000000 0.000001 -0.000000 -0.000000 0.000001 -0.000000 0.000000 -0.000001 -0.000000 -0.000000 0.000001 -0.000000 0.000000 -0.000001 -0.000000 -0.000000 0.000000 -0.000000 -0.000000 0.000000 -8.310470 -11.099477 -11.307727 -14.786354 15.433478 -31.237194 14.384686 -52.081374 3.335665 -5.543250 5.381419 24.045261 -0.295234 -4.957892 9.104970 3.727190 22.762620 -1.791831 0.000001 -0.000000 -0.000001 13.357827 -1.028544 4.914083 -0.161035 0.306767 -36.874146 0.000001 0.000001 -0.000005 8.404987 -0.269310 -6.683300 0.264756 0.679248 -35.670636 -0.000002 -0.000001 0.000006 6.054684 3.219368 -21.975633 0.051443 0.360803 -35.893850 -0.000001 -0.000000 -0.000001 -5.658977 7.744611 -19.643911 0.247711 0.293881 -52.356924 -0.000000 -0.000001 -0.000001 -0.000001 0.000002 -0.000003 -6.427621 7.045162 3.807185 -35.653809 -12.738075 26.064685 13.821634 110.918468 -7.469499 13.357304 1.174505 -10.753074 0.549460 8.746534 -11.165469 1.973958 -18.616005 2.888148 0.000001 0.000002 -0.000004 19.456641 11.184781 -4.158306 -0.109475 -0.330040 27.220013 -0.000002 0.000001 0.000002 4.179697 2.339683 4.376952 0.401403 -0.491183 36.075000 0.000000 -0.000001 -0.000001 -7.074581 -10.777291 14.890801 0.116398 -0.150534 35.340041 -0.000001 -0.000004 -0.000003 -19.458984 -20.274191 15.163326 0.256653 -0.118274 46.028945 -0.000002 -0.000000 -0.000003 0.000000 0.000003 0.000002 -0.000001 -0.000001 -0.000000 -0.000001 -0.000000 0.000000 -0.000001 -0.000001 -0.000001 -0.000001 -0.000001 -0.000001 -0.000001 -0.000001 -0.000000 -0.000001 -0.000000 0.000000 -0.000001 -0.000001 -0.000001 -0.000001 -0.000001 -0.000001 -0.000001 -0.000001 -0.000000 -0.000001 -0.000000 0.000000 0.000000 -0.000001 0.000000 0.000000 -0.000001 0.000000 0.000000 -0.000001 0.000000 
